<mxfile host="app.diagrams.net" modified="2022-09-04T23:46:12.032Z" agent="5.0 (Macintosh)" etag="lFUdSxt9LBFyIO9dvDdT" version="20.2.3" type="github">
  <diagram name="Page-1" id="13e1069c-82ec-6db2-03f1-153e76fe0fe0">
    <mxGraphModel dx="1046" dy="767" grid="1" gridSize="10" guides="1" tooltips="1" connect="1" arrows="1" fold="1" page="1" pageScale="1" pageWidth="1100" pageHeight="850" background="none" math="0" shadow="0">
      <root>
        <mxCell id="0" />
        <mxCell id="1" parent="0" />
        <mxCell id="3SdPpr4CrAt1AZ08tqs8-2" value="AbstractEMRWalServiceWal" style="swimlane;fontStyle=1;align=center;verticalAlign=top;childLayout=stackLayout;horizontal=1;startSize=26;horizontalStack=0;resizeParent=1;resizeParentMax=0;resizeLast=0;collapsible=1;marginBottom=0;fillColor=#d5e8d4;strokeColor=#82b366;" vertex="1" collapsed="1" parent="1">
          <mxGeometry x="410" y="360" width="200" height="30" as="geometry">
            <mxRectangle x="410" y="380" width="230" height="34" as="alternateBounds" />
          </mxGeometry>
        </mxCell>
        <mxCell id="3SdPpr4CrAt1AZ08tqs8-4" value="" style="line;strokeWidth=1;fillColor=none;align=left;verticalAlign=middle;spacingTop=-1;spacingLeft=3;spacingRight=3;rotatable=0;labelPosition=right;points=[];portConstraint=eastwest;" vertex="1" parent="3SdPpr4CrAt1AZ08tqs8-2">
          <mxGeometry y="26" width="230" height="8" as="geometry" />
        </mxCell>
        <mxCell id="3SdPpr4CrAt1AZ08tqs8-6" value="EMRSyncWalServiceWal" style="swimlane;fontStyle=1;align=center;verticalAlign=top;childLayout=stackLayout;horizontal=1;startSize=26;horizontalStack=0;resizeParent=1;resizeParentMax=0;resizeLast=0;collapsible=1;marginBottom=0;fillColor=#d5e8d4;strokeColor=#82b366;" vertex="1" collapsed="1" parent="1">
          <mxGeometry x="420" y="470" width="180" height="30" as="geometry">
            <mxRectangle x="410" y="520" width="230" height="34" as="alternateBounds" />
          </mxGeometry>
        </mxCell>
        <mxCell id="3SdPpr4CrAt1AZ08tqs8-7" value="" style="line;strokeWidth=1;fillColor=none;align=left;verticalAlign=middle;spacingTop=-1;spacingLeft=3;spacingRight=3;rotatable=0;labelPosition=right;points=[];portConstraint=eastwest;" vertex="1" parent="3SdPpr4CrAt1AZ08tqs8-6">
          <mxGeometry y="26" width="230" height="8" as="geometry" />
        </mxCell>
        <mxCell id="3SdPpr4CrAt1AZ08tqs8-9" value="Extends" style="endArrow=block;endSize=16;endFill=0;html=1;rounded=0;entryX=0.5;entryY=1;entryDx=0;entryDy=0;exitX=0.5;exitY=0;exitDx=0;exitDy=0;" edge="1" parent="1" source="3SdPpr4CrAt1AZ08tqs8-6" target="3SdPpr4CrAt1AZ08tqs8-2">
          <mxGeometry width="160" relative="1" as="geometry">
            <mxPoint x="530" y="520" as="sourcePoint" />
            <mxPoint x="690" y="520" as="targetPoint" />
          </mxGeometry>
        </mxCell>
        <mxCell id="3SdPpr4CrAt1AZ08tqs8-10" value="EMRWalServiceClientWrapper" style="swimlane;fontStyle=1;align=center;verticalAlign=top;childLayout=stackLayout;horizontal=1;startSize=26;horizontalStack=0;resizeParent=1;resizeParentMax=0;resizeLast=0;collapsible=1;marginBottom=0;fillColor=#d5e8d4;strokeColor=#82b366;" vertex="1" collapsed="1" parent="1">
          <mxGeometry x="860" y="470" width="210" height="30" as="geometry">
            <mxRectangle x="720" y="520" width="230" height="34" as="alternateBounds" />
          </mxGeometry>
        </mxCell>
        <mxCell id="3SdPpr4CrAt1AZ08tqs8-11" value="" style="line;strokeWidth=1;fillColor=none;align=left;verticalAlign=middle;spacingTop=-1;spacingLeft=3;spacingRight=3;rotatable=0;labelPosition=right;points=[];portConstraint=eastwest;" vertex="1" parent="3SdPpr4CrAt1AZ08tqs8-10">
          <mxGeometry y="26" width="230" height="8" as="geometry" />
        </mxCell>
        <mxCell id="3SdPpr4CrAt1AZ08tqs8-14" value="RingBufferEventHandler" style="swimlane;fontStyle=1;align=center;verticalAlign=top;childLayout=stackLayout;horizontal=1;startSize=26;horizontalStack=0;resizeParent=1;resizeParentMax=0;resizeLast=0;collapsible=1;marginBottom=0;fillColor=#d5e8d4;strokeColor=#82b366;" vertex="1" collapsed="1" parent="1">
          <mxGeometry x="640" y="470" width="180" height="30" as="geometry">
            <mxRectangle x="410" y="520" width="230" height="34" as="alternateBounds" />
          </mxGeometry>
        </mxCell>
        <mxCell id="3SdPpr4CrAt1AZ08tqs8-15" value="" style="line;strokeWidth=1;fillColor=none;align=left;verticalAlign=middle;spacingTop=-1;spacingLeft=3;spacingRight=3;rotatable=0;labelPosition=right;points=[];portConstraint=eastwest;" vertex="1" parent="3SdPpr4CrAt1AZ08tqs8-14">
          <mxGeometry y="26" width="230" height="8" as="geometry" />
        </mxCell>
        <mxCell id="3SdPpr4CrAt1AZ08tqs8-18" value="EMRWalServiceWalProvider" style="swimlane;fontStyle=1;align=center;verticalAlign=top;childLayout=stackLayout;horizontal=1;startSize=26;horizontalStack=0;resizeParent=1;resizeParentMax=0;resizeLast=0;collapsible=1;marginBottom=0;fillColor=#d5e8d4;strokeColor=#82b366;" vertex="1" collapsed="1" parent="1">
          <mxGeometry x="420" y="570" width="180" height="30" as="geometry">
            <mxRectangle x="410" y="520" width="230" height="34" as="alternateBounds" />
          </mxGeometry>
        </mxCell>
        <mxCell id="3SdPpr4CrAt1AZ08tqs8-19" value="" style="line;strokeWidth=1;fillColor=none;align=left;verticalAlign=middle;spacingTop=-1;spacingLeft=3;spacingRight=3;rotatable=0;labelPosition=right;points=[];portConstraint=eastwest;" vertex="1" parent="3SdPpr4CrAt1AZ08tqs8-18">
          <mxGeometry y="26" width="230" height="8" as="geometry" />
        </mxCell>
        <mxCell id="3SdPpr4CrAt1AZ08tqs8-21" value="Use" style="endArrow=open;endSize=12;dashed=1;html=1;rounded=0;exitX=0.5;exitY=0;exitDx=0;exitDy=0;entryX=0.5;entryY=1;entryDx=0;entryDy=0;" edge="1" parent="1" source="3SdPpr4CrAt1AZ08tqs8-18" target="3SdPpr4CrAt1AZ08tqs8-6">
          <mxGeometry width="160" relative="1" as="geometry">
            <mxPoint x="560" y="490" as="sourcePoint" />
            <mxPoint x="720" y="490" as="targetPoint" />
          </mxGeometry>
        </mxCell>
        <mxCell id="3SdPpr4CrAt1AZ08tqs8-22" value="EMRProtobufLogWriter" style="swimlane;fontStyle=1;align=center;verticalAlign=top;childLayout=stackLayout;horizontal=1;startSize=26;horizontalStack=0;resizeParent=1;resizeParentMax=0;resizeLast=0;collapsible=1;marginBottom=0;fillColor=#d5e8d4;strokeColor=#82b366;" vertex="1" collapsed="1" parent="1">
          <mxGeometry x="795" y="360" width="200" height="30" as="geometry">
            <mxRectangle x="410" y="380" width="230" height="34" as="alternateBounds" />
          </mxGeometry>
        </mxCell>
        <mxCell id="3SdPpr4CrAt1AZ08tqs8-23" value="" style="line;strokeWidth=1;fillColor=none;align=left;verticalAlign=middle;spacingTop=-1;spacingLeft=3;spacingRight=3;rotatable=0;labelPosition=right;points=[];portConstraint=eastwest;" vertex="1" parent="3SdPpr4CrAt1AZ08tqs8-22">
          <mxGeometry y="26" width="230" height="8" as="geometry" />
        </mxCell>
        <mxCell id="3SdPpr4CrAt1AZ08tqs8-28" value="" style="endArrow=open;startArrow=circlePlus;endFill=0;startFill=0;endSize=8;html=1;rounded=0;entryX=0;entryY=0.5;entryDx=0;entryDy=0;exitX=1;exitY=0.5;exitDx=0;exitDy=0;" edge="1" parent="1" source="3SdPpr4CrAt1AZ08tqs8-18" target="3SdPpr4CrAt1AZ08tqs8-59">
          <mxGeometry width="160" relative="1" as="geometry">
            <mxPoint x="600" y="630" as="sourcePoint" />
            <mxPoint x="670" y="585" as="targetPoint" />
          </mxGeometry>
        </mxCell>
        <mxCell id="3SdPpr4CrAt1AZ08tqs8-30" value="1" style="endArrow=open;html=1;endSize=12;startArrow=diamondThin;startSize=14;startFill=1;edgeStyle=orthogonalEdgeStyle;align=left;verticalAlign=bottom;rounded=0;exitX=1;exitY=0.5;exitDx=0;exitDy=0;entryX=0;entryY=0.5;entryDx=0;entryDy=0;" edge="1" parent="1" source="3SdPpr4CrAt1AZ08tqs8-2" target="3SdPpr4CrAt1AZ08tqs8-22">
          <mxGeometry x="-1" y="3" relative="1" as="geometry">
            <mxPoint x="510" y="500" as="sourcePoint" />
            <mxPoint x="670" y="500" as="targetPoint" />
          </mxGeometry>
        </mxCell>
        <mxCell id="3SdPpr4CrAt1AZ08tqs8-31" value="EMRProtobufParser" style="swimlane;fontStyle=1;align=center;verticalAlign=top;childLayout=stackLayout;horizontal=1;startSize=26;horizontalStack=0;resizeParent=1;resizeParentMax=0;resizeLast=0;collapsible=1;marginBottom=0;fillColor=#d5e8d4;strokeColor=#82b366;" vertex="1" collapsed="1" parent="1">
          <mxGeometry x="795" y="220" width="200" height="30" as="geometry">
            <mxRectangle x="410" y="380" width="230" height="34" as="alternateBounds" />
          </mxGeometry>
        </mxCell>
        <mxCell id="3SdPpr4CrAt1AZ08tqs8-32" value="" style="line;strokeWidth=1;fillColor=none;align=left;verticalAlign=middle;spacingTop=-1;spacingLeft=3;spacingRight=3;rotatable=0;labelPosition=right;points=[];portConstraint=eastwest;" vertex="1" parent="3SdPpr4CrAt1AZ08tqs8-31">
          <mxGeometry y="26" width="230" height="8" as="geometry" />
        </mxCell>
        <mxCell id="3SdPpr4CrAt1AZ08tqs8-34" value="Use" style="endArrow=open;endSize=12;dashed=1;html=1;rounded=0;exitX=0.5;exitY=0;exitDx=0;exitDy=0;entryX=0.5;entryY=1;entryDx=0;entryDy=0;" edge="1" parent="1" source="3SdPpr4CrAt1AZ08tqs8-22" target="3SdPpr4CrAt1AZ08tqs8-31">
          <mxGeometry width="160" relative="1" as="geometry">
            <mxPoint x="425" y="430" as="sourcePoint" />
            <mxPoint x="585" y="430" as="targetPoint" />
          </mxGeometry>
        </mxCell>
        <mxCell id="3SdPpr4CrAt1AZ08tqs8-35" value="EMRWALReplayer" style="swimlane;fontStyle=1;align=center;verticalAlign=top;childLayout=stackLayout;horizontal=1;startSize=26;horizontalStack=0;resizeParent=1;resizeParentMax=0;resizeLast=0;collapsible=1;marginBottom=0;fillColor=#d5e8d4;strokeColor=#82b366;" vertex="1" collapsed="1" parent="1">
          <mxGeometry x="120" y="410" width="200" height="30" as="geometry">
            <mxRectangle x="410" y="380" width="230" height="34" as="alternateBounds" />
          </mxGeometry>
        </mxCell>
        <mxCell id="3SdPpr4CrAt1AZ08tqs8-36" value="" style="line;strokeWidth=1;fillColor=none;align=left;verticalAlign=middle;spacingTop=-1;spacingLeft=3;spacingRight=3;rotatable=0;labelPosition=right;points=[];portConstraint=eastwest;" vertex="1" parent="3SdPpr4CrAt1AZ08tqs8-35">
          <mxGeometry y="26" width="230" height="8" as="geometry" />
        </mxCell>
        <mxCell id="3SdPpr4CrAt1AZ08tqs8-39" value="Use" style="endArrow=open;endSize=12;dashed=1;html=1;rounded=0;exitX=0.5;exitY=0;exitDx=0;exitDy=0;entryX=0;entryY=0.5;entryDx=0;entryDy=0;edgeStyle=orthogonalEdgeStyle;" edge="1" parent="1" source="3SdPpr4CrAt1AZ08tqs8-35" target="3SdPpr4CrAt1AZ08tqs8-31">
          <mxGeometry width="160" relative="1" as="geometry">
            <mxPoint x="960" y="410" as="sourcePoint" />
            <mxPoint x="960" y="290" as="targetPoint" />
          </mxGeometry>
        </mxCell>
        <mxCell id="3SdPpr4CrAt1AZ08tqs8-40" value="Use" style="endArrow=open;endSize=12;dashed=1;html=1;rounded=0;exitX=0.75;exitY=1;exitDx=0;exitDy=0;entryX=0.25;entryY=0;entryDx=0;entryDy=0;edgeStyle=orthogonalEdgeStyle;" edge="1" parent="1" source="3SdPpr4CrAt1AZ08tqs8-35" target="3SdPpr4CrAt1AZ08tqs8-6">
          <mxGeometry width="160" relative="1" as="geometry">
            <mxPoint x="470" y="450" as="sourcePoint" />
            <mxPoint x="630" y="450" as="targetPoint" />
            <Array as="points">
              <mxPoint x="270" y="455" />
              <mxPoint x="465" y="455" />
            </Array>
          </mxGeometry>
        </mxCell>
        <mxCell id="3SdPpr4CrAt1AZ08tqs8-44" value="«interface»&lt;br&gt;&lt;b&gt;WAL&lt;/b&gt;" style="html=1;fillColor=#dae8fc;strokeColor=#6c8ebf;" vertex="1" parent="1">
          <mxGeometry x="455" y="260" width="110" height="50" as="geometry" />
        </mxCell>
        <mxCell id="3SdPpr4CrAt1AZ08tqs8-45" value="" style="endArrow=block;dashed=1;endFill=0;endSize=12;html=1;rounded=0;entryX=0.5;entryY=1;entryDx=0;entryDy=0;exitX=0.5;exitY=0;exitDx=0;exitDy=0;" edge="1" parent="1" source="3SdPpr4CrAt1AZ08tqs8-2" target="3SdPpr4CrAt1AZ08tqs8-44">
          <mxGeometry width="160" relative="1" as="geometry">
            <mxPoint x="210" y="400" as="sourcePoint" />
            <mxPoint x="370" y="400" as="targetPoint" />
          </mxGeometry>
        </mxCell>
        <mxCell id="3SdPpr4CrAt1AZ08tqs8-49" value="Extends" style="endArrow=block;endSize=16;endFill=0;html=1;rounded=0;exitX=0.5;exitY=1;exitDx=0;exitDy=0;" edge="1" parent="1" source="3SdPpr4CrAt1AZ08tqs8-59" target="3SdPpr4CrAt1AZ08tqs8-60">
          <mxGeometry width="160" relative="1" as="geometry">
            <mxPoint x="975" y="585" as="sourcePoint" />
            <mxPoint x="1135" y="585" as="targetPoint" />
          </mxGeometry>
        </mxCell>
        <mxCell id="3SdPpr4CrAt1AZ08tqs8-51" value="AbstractProtobufLogWriter" style="swimlane;fontStyle=1;align=center;verticalAlign=top;childLayout=stackLayout;horizontal=1;startSize=26;horizontalStack=0;resizeParent=1;resizeParentMax=0;resizeLast=0;collapsible=1;marginBottom=0;fillColor=#dae8fc;strokeColor=#6c8ebf;" vertex="1" collapsed="1" parent="1">
          <mxGeometry x="1075" y="360" width="200" height="30" as="geometry">
            <mxRectangle x="410" y="380" width="230" height="34" as="alternateBounds" />
          </mxGeometry>
        </mxCell>
        <mxCell id="3SdPpr4CrAt1AZ08tqs8-52" value="" style="line;strokeWidth=1;fillColor=none;align=left;verticalAlign=middle;spacingTop=-1;spacingLeft=3;spacingRight=3;rotatable=0;labelPosition=right;points=[];portConstraint=eastwest;" vertex="1" parent="3SdPpr4CrAt1AZ08tqs8-51">
          <mxGeometry y="26" width="230" height="8" as="geometry" />
        </mxCell>
        <mxCell id="3SdPpr4CrAt1AZ08tqs8-54" value="Extends" style="endArrow=block;endSize=16;endFill=0;html=1;rounded=0;exitX=1;exitY=0.5;exitDx=0;exitDy=0;entryX=0;entryY=0.5;entryDx=0;entryDy=0;" edge="1" parent="1" source="3SdPpr4CrAt1AZ08tqs8-22" target="3SdPpr4CrAt1AZ08tqs8-51">
          <mxGeometry width="160" relative="1" as="geometry">
            <mxPoint x="945" y="450" as="sourcePoint" />
            <mxPoint x="1105" y="450" as="targetPoint" />
          </mxGeometry>
        </mxCell>
        <mxCell id="3SdPpr4CrAt1AZ08tqs8-57" value="1" style="endArrow=open;html=1;endSize=12;startArrow=diamondThin;startSize=14;startFill=1;edgeStyle=orthogonalEdgeStyle;align=left;verticalAlign=bottom;rounded=0;entryX=0.5;entryY=0;entryDx=0;entryDy=0;" edge="1" parent="1" source="3SdPpr4CrAt1AZ08tqs8-22" target="3SdPpr4CrAt1AZ08tqs8-10">
          <mxGeometry x="-0.7333" y="-25" relative="1" as="geometry">
            <mxPoint x="695" y="400" as="sourcePoint" />
            <mxPoint x="855" y="400" as="targetPoint" />
            <mxPoint as="offset" />
          </mxGeometry>
        </mxCell>
        <mxCell id="3SdPpr4CrAt1AZ08tqs8-58" value="" style="endArrow=block;dashed=1;endFill=0;endSize=12;html=1;rounded=0;exitX=0.25;exitY=1;exitDx=0;exitDy=0;entryX=0.5;entryY=0;entryDx=0;entryDy=0;" edge="1" parent="1" source="3SdPpr4CrAt1AZ08tqs8-22" target="3SdPpr4CrAt1AZ08tqs8-59">
          <mxGeometry width="160" relative="1" as="geometry">
            <mxPoint x="675" y="400" as="sourcePoint" />
            <mxPoint x="835" y="400" as="targetPoint" />
          </mxGeometry>
        </mxCell>
        <mxCell id="3SdPpr4CrAt1AZ08tqs8-85" value="Implement" style="edgeLabel;html=1;align=center;verticalAlign=middle;resizable=0;points=[];" vertex="1" connectable="0" parent="3SdPpr4CrAt1AZ08tqs8-58">
          <mxGeometry x="-0.3647" relative="1" as="geometry">
            <mxPoint as="offset" />
          </mxGeometry>
        </mxCell>
        <mxCell id="3SdPpr4CrAt1AZ08tqs8-59" value="«interface»&lt;br&gt;&lt;b&gt;Writer&lt;/b&gt;" style="html=1;fillColor=#d5e8d4;strokeColor=#82b366;" vertex="1" parent="1">
          <mxGeometry x="790" y="560" width="110" height="50" as="geometry" />
        </mxCell>
        <mxCell id="3SdPpr4CrAt1AZ08tqs8-60" value="«interface»&lt;br&gt;WALProvider.WriterBase" style="html=1;fillColor=#dae8fc;strokeColor=#6c8ebf;" vertex="1" parent="1">
          <mxGeometry x="770" y="710" width="150" height="50" as="geometry" />
        </mxCell>
        <mxCell id="3SdPpr4CrAt1AZ08tqs8-61" value="HRegion" style="swimlane;fontStyle=1;align=center;verticalAlign=top;childLayout=stackLayout;horizontal=1;startSize=26;horizontalStack=0;resizeParent=1;resizeParentMax=0;resizeLast=0;collapsible=1;marginBottom=0;fillColor=#dae8fc;strokeColor=#6c8ebf;" vertex="1" collapsed="1" parent="1">
          <mxGeometry x="150" y="570" width="140" height="30" as="geometry">
            <mxRectangle x="410" y="380" width="230" height="34" as="alternateBounds" />
          </mxGeometry>
        </mxCell>
        <mxCell id="3SdPpr4CrAt1AZ08tqs8-62" value="" style="line;strokeWidth=1;fillColor=none;align=left;verticalAlign=middle;spacingTop=-1;spacingLeft=3;spacingRight=3;rotatable=0;labelPosition=right;points=[];portConstraint=eastwest;" vertex="1" parent="3SdPpr4CrAt1AZ08tqs8-61">
          <mxGeometry y="26" width="230" height="8" as="geometry" />
        </mxCell>
        <mxCell id="3SdPpr4CrAt1AZ08tqs8-64" value="Use" style="endArrow=open;endSize=12;dashed=1;html=1;rounded=0;exitX=0.5;exitY=0;exitDx=0;exitDy=0;entryX=0.5;entryY=1;entryDx=0;entryDy=0;edgeStyle=orthogonalEdgeStyle;" edge="1" parent="1" source="3SdPpr4CrAt1AZ08tqs8-61" target="3SdPpr4CrAt1AZ08tqs8-35">
          <mxGeometry width="160" relative="1" as="geometry">
            <mxPoint x="340" y="390" as="sourcePoint" />
            <mxPoint x="500" y="390" as="targetPoint" />
          </mxGeometry>
        </mxCell>
        <mxCell id="3SdPpr4CrAt1AZ08tqs8-65" value="Use" style="endArrow=open;endSize=12;dashed=1;html=1;rounded=0;entryX=0;entryY=0.5;entryDx=0;entryDy=0;exitX=1;exitY=0.5;exitDx=0;exitDy=0;edgeStyle=orthogonalEdgeStyle;" edge="1" parent="1" source="3SdPpr4CrAt1AZ08tqs8-61" target="3SdPpr4CrAt1AZ08tqs8-6">
          <mxGeometry width="160" relative="1" as="geometry">
            <mxPoint x="340" y="390" as="sourcePoint" />
            <mxPoint x="500" y="390" as="targetPoint" />
          </mxGeometry>
        </mxCell>
        <mxCell id="3SdPpr4CrAt1AZ08tqs8-66" value="1" style="endArrow=open;html=1;endSize=12;startArrow=diamondThin;startSize=14;startFill=1;edgeStyle=orthogonalEdgeStyle;align=left;verticalAlign=bottom;rounded=0;exitX=1;exitY=0.5;exitDx=0;exitDy=0;entryX=0;entryY=0.5;entryDx=0;entryDy=0;" edge="1" parent="1" source="3SdPpr4CrAt1AZ08tqs8-6" target="3SdPpr4CrAt1AZ08tqs8-14">
          <mxGeometry x="-1" y="3" relative="1" as="geometry">
            <mxPoint x="690" y="400" as="sourcePoint" />
            <mxPoint x="850" y="400" as="targetPoint" />
          </mxGeometry>
        </mxCell>
        <mxCell id="3SdPpr4CrAt1AZ08tqs8-67" value="Use" style="endArrow=open;endSize=12;dashed=1;html=1;rounded=0;exitX=0.5;exitY=0;exitDx=0;exitDy=0;entryX=0;entryY=1;entryDx=0;entryDy=0;edgeStyle=orthogonalEdgeStyle;" edge="1" parent="1" source="3SdPpr4CrAt1AZ08tqs8-14" target="3SdPpr4CrAt1AZ08tqs8-22">
          <mxGeometry x="-0.375" width="160" relative="1" as="geometry">
            <mxPoint x="620" y="275" as="sourcePoint" />
            <mxPoint x="805" y="275" as="targetPoint" />
            <mxPoint as="offset" />
          </mxGeometry>
        </mxCell>
        <mxCell id="3SdPpr4CrAt1AZ08tqs8-69" value="EMRWALServiceClient" style="swimlane;fontStyle=1;align=center;verticalAlign=top;childLayout=stackLayout;horizontal=1;startSize=26;horizontalStack=0;resizeParent=1;resizeParentMax=0;resizeLast=0;collapsible=1;marginBottom=0;fillColor=#f8cecc;strokeColor=#b85450;" vertex="1" collapsed="1" parent="1">
          <mxGeometry x="1120" y="470" width="210" height="30" as="geometry">
            <mxRectangle x="720" y="520" width="230" height="34" as="alternateBounds" />
          </mxGeometry>
        </mxCell>
        <mxCell id="3SdPpr4CrAt1AZ08tqs8-70" value="" style="line;strokeWidth=1;fillColor=none;align=left;verticalAlign=middle;spacingTop=-1;spacingLeft=3;spacingRight=3;rotatable=0;labelPosition=right;points=[];portConstraint=eastwest;" vertex="1" parent="3SdPpr4CrAt1AZ08tqs8-69">
          <mxGeometry y="26" width="230" height="8" as="geometry" />
        </mxCell>
        <mxCell id="3SdPpr4CrAt1AZ08tqs8-72" value="Use" style="endArrow=open;endSize=12;dashed=1;html=1;rounded=0;exitX=1;exitY=0.5;exitDx=0;exitDy=0;entryX=0;entryY=0.5;entryDx=0;entryDy=0;" edge="1" parent="1" source="3SdPpr4CrAt1AZ08tqs8-10" target="3SdPpr4CrAt1AZ08tqs8-69">
          <mxGeometry width="160" relative="1" as="geometry">
            <mxPoint x="980" y="400" as="sourcePoint" />
            <mxPoint x="1140" y="400" as="targetPoint" />
          </mxGeometry>
        </mxCell>
        <mxCell id="3SdPpr4CrAt1AZ08tqs8-73" value="WALFactory" style="swimlane;fontStyle=1;align=center;verticalAlign=top;childLayout=stackLayout;horizontal=1;startSize=26;horizontalStack=0;resizeParent=1;resizeParentMax=0;resizeLast=0;collapsible=1;marginBottom=0;fillColor=#dae8fc;strokeColor=#6c8ebf;" vertex="1" collapsed="1" parent="1">
          <mxGeometry x="420" y="670" width="180" height="30" as="geometry">
            <mxRectangle x="410" y="520" width="230" height="34" as="alternateBounds" />
          </mxGeometry>
        </mxCell>
        <mxCell id="3SdPpr4CrAt1AZ08tqs8-74" value="" style="line;strokeWidth=1;fillColor=none;align=left;verticalAlign=middle;spacingTop=-1;spacingLeft=3;spacingRight=3;rotatable=0;labelPosition=right;points=[];portConstraint=eastwest;" vertex="1" parent="3SdPpr4CrAt1AZ08tqs8-73">
          <mxGeometry y="26" width="230" height="8" as="geometry" />
        </mxCell>
        <mxCell id="3SdPpr4CrAt1AZ08tqs8-76" value="HRegionServer" style="swimlane;fontStyle=1;align=center;verticalAlign=top;childLayout=stackLayout;horizontal=1;startSize=26;horizontalStack=0;resizeParent=1;resizeParentMax=0;resizeLast=0;collapsible=1;marginBottom=0;fillColor=#dae8fc;strokeColor=#6c8ebf;" vertex="1" collapsed="1" parent="1">
          <mxGeometry x="130" y="670" width="180" height="30" as="geometry">
            <mxRectangle x="410" y="520" width="230" height="34" as="alternateBounds" />
          </mxGeometry>
        </mxCell>
        <mxCell id="3SdPpr4CrAt1AZ08tqs8-77" value="" style="line;strokeWidth=1;fillColor=none;align=left;verticalAlign=middle;spacingTop=-1;spacingLeft=3;spacingRight=3;rotatable=0;labelPosition=right;points=[];portConstraint=eastwest;" vertex="1" parent="3SdPpr4CrAt1AZ08tqs8-76">
          <mxGeometry y="26" width="230" height="8" as="geometry" />
        </mxCell>
        <mxCell id="3SdPpr4CrAt1AZ08tqs8-79" value="1" style="endArrow=open;html=1;endSize=12;startArrow=diamondThin;startSize=14;startFill=0;edgeStyle=orthogonalEdgeStyle;align=left;verticalAlign=bottom;rounded=0;exitX=0.5;exitY=0;exitDx=0;exitDy=0;entryX=0.5;entryY=1;entryDx=0;entryDy=0;" edge="1" parent="1" source="3SdPpr4CrAt1AZ08tqs8-73" target="3SdPpr4CrAt1AZ08tqs8-18">
          <mxGeometry x="-0.7143" y="-10" relative="1" as="geometry">
            <mxPoint x="410" y="560" as="sourcePoint" />
            <mxPoint x="570" y="560" as="targetPoint" />
            <mxPoint as="offset" />
          </mxGeometry>
        </mxCell>
        <mxCell id="3SdPpr4CrAt1AZ08tqs8-81" value="1" style="endArrow=open;html=1;endSize=12;startArrow=diamondThin;startSize=14;startFill=0;edgeStyle=orthogonalEdgeStyle;align=left;verticalAlign=bottom;rounded=0;exitX=1;exitY=0.5;exitDx=0;exitDy=0;entryX=0;entryY=0.5;entryDx=0;entryDy=0;" edge="1" parent="1" source="3SdPpr4CrAt1AZ08tqs8-76" target="3SdPpr4CrAt1AZ08tqs8-73">
          <mxGeometry x="-1" y="3" relative="1" as="geometry">
            <mxPoint x="410" y="560" as="sourcePoint" />
            <mxPoint x="570" y="560" as="targetPoint" />
          </mxGeometry>
        </mxCell>
        <mxCell id="3SdPpr4CrAt1AZ08tqs8-82" value="1" style="endArrow=open;html=1;endSize=12;startArrow=diamondThin;startSize=14;startFill=1;edgeStyle=orthogonalEdgeStyle;align=left;verticalAlign=bottom;rounded=0;exitX=0.5;exitY=0;exitDx=0;exitDy=0;entryX=0.5;entryY=1;entryDx=0;entryDy=0;" edge="1" parent="1" source="3SdPpr4CrAt1AZ08tqs8-76" target="3SdPpr4CrAt1AZ08tqs8-61">
          <mxGeometry x="-0.8824" y="-10" relative="1" as="geometry">
            <mxPoint x="210" y="671" as="sourcePoint" />
            <mxPoint x="210" y="590" as="targetPoint" />
            <mxPoint as="offset" />
          </mxGeometry>
        </mxCell>
        <mxCell id="3SdPpr4CrAt1AZ08tqs8-83" value="Use" style="endArrow=open;endSize=12;dashed=1;html=1;rounded=0;exitX=0.75;exitY=1;exitDx=0;exitDy=0;entryX=0.5;entryY=1;entryDx=0;entryDy=0;edgeStyle=orthogonalEdgeStyle;" edge="1" parent="1" source="3SdPpr4CrAt1AZ08tqs8-6" target="3SdPpr4CrAt1AZ08tqs8-10">
          <mxGeometry width="160" relative="1" as="geometry">
            <mxPoint x="630" y="540" as="sourcePoint" />
            <mxPoint x="790" y="540" as="targetPoint" />
            <Array as="points">
              <mxPoint x="555" y="530" />
              <mxPoint x="965" y="530" />
            </Array>
          </mxGeometry>
        </mxCell>
      </root>
    </mxGraphModel>
  </diagram>
</mxfile>
